<svg width="266" height="210" viewBox="0 0 266 210" fill="none" xmlns="http://www.w3.org/2000/svg">
<g clip-path="url(#clip0_667_212)">
<path d="M258.402 97.7448C260.723 97.7448 262.605 95.8632 262.605 93.5421C262.605 91.221 260.723 89.3394 258.402 89.3394C256.081 89.3394 254.199 91.221 254.199 93.5421C254.199 95.8632 256.081 97.7448 258.402 97.7448Z" fill="#DDDEE5"/>
<path d="M63.9302 98.7796C63.588 99.0195 63.1973 99.1815 62.7858 99.2541C62.3742 99.3267 61.9518 99.3081 61.5481 99.1998C61.1445 99.0915 60.7696 98.8959 60.4497 98.627C60.1298 98.3581 59.8728 98.0223 59.6967 97.6433L49.5898 98.6666L52.0373 93.9893L61.2597 93.7347C61.916 93.4811 62.6426 93.4771 63.3017 93.7233C63.9607 93.9696 64.5066 94.4491 64.8358 95.071C65.1649 95.6929 65.2545 96.4138 65.0876 97.0974C64.9207 97.7809 64.5089 98.3794 63.9302 98.7796Z" fill="#FFB6B6"/>
<path d="M34.7666 103.383L12.4965 94.1545C10.7321 93.4211 9.33058 92.0177 8.5996 90.2523C7.86861 88.4868 7.86781 86.5035 8.59739 84.7375C9.00241 83.7602 9.61762 82.884 10.3993 82.1712C11.181 81.4584 12.1101 80.9264 13.1205 80.613C14.1309 80.2996 15.198 80.2125 16.2458 80.3579C17.2937 80.5033 18.2967 80.8776 19.1837 81.4542L37.1273 93.1199L55.8012 92.1742L57.1994 97.9895L34.7666 103.383Z" fill="#15253F"/>
<path d="M30.6647 202.591H34.2302L35.9265 188.838L30.6641 188.838L30.6647 202.591Z" fill="#FFB6B6"/>
<path d="M29.4568 200.832L35.0933 200.496V202.911L40.4521 206.612C40.7168 206.794 40.9162 207.057 41.0211 207.361C41.126 207.665 41.1309 207.995 41.0352 208.302C40.9395 208.609 40.7481 208.877 40.489 209.068C40.2299 209.259 39.9166 209.361 39.595 209.361H32.8845L31.7278 206.973L31.2762 209.361H28.7461L29.4568 200.832Z" fill="#2F2E41"/>
<path d="M7.7233 202.591H11.2888L12.9851 188.838L7.72266 188.838L7.7233 202.591Z" fill="#FFB6B6"/>
<path d="M6.51542 200.832L12.1519 200.496V202.911L17.5107 206.612C17.7754 206.794 17.9748 207.057 18.0797 207.361C18.1846 207.665 18.1895 207.995 18.0938 208.302C17.9981 208.609 17.8067 208.877 17.5476 209.068C17.2885 209.259 16.9753 209.361 16.6536 209.361H9.9431L8.78644 206.973L8.33481 209.361H5.80469L6.51542 200.832Z" fill="#2F2E41"/>
<path d="M25.7493 126.532L39.6505 154.111C40.4124 155.618 40.648 157.337 40.3197 158.993C40.0373 160.408 39.6037 161.789 39.0266 163.112L37.1612 185.244L35.4898 192.186L29.4767 192.699C29.4767 192.699 29.9423 186.88 28.3129 178.72C26.6835 170.56 29.4767 158.676 29.4767 158.676C29.4767 158.676 24.3527 150.29 18.527 146.094C12.7014 141.898 25.7493 126.532 25.7493 126.532Z" fill="#2F2E41"/>
<path d="M10.8388 114.066C10.8388 114.066 7.95507 119.177 5.82461 121.928C3.85634 124.42 2.90352 127.563 3.1575 130.728C3.36441 132.991 4.15969 135.432 6.18023 137.365C6.18023 137.365 7.57682 140.86 6.87852 142.725V159.274C6.87852 159.274 3.13927 178.814 6.40122 184.64L7.80959 197.716C7.80959 197.716 12.7528 199.104 12.9856 196.776C12.9856 196.776 13.632 191.661 13.8809 190.028L14.0684 173.305C14.1069 171.132 14.7812 169.018 16.0081 167.224C16.978 165.798 17.9478 163.584 18.0772 160.435L25.7487 126.532L27.4566 114.689L10.8388 114.066Z" fill="#2F2E41"/>
<path d="M6.54506 95.8516L9.52688 110.761L2.99414 125.991L27.3991 116.584L27.7304 115.685L28.5378 112.623L27.5812 103.089C27.9172 102.389 32.7003 97.9701 27.6979 90.2006L22.2942 77.5173L12.1728 77.3633L12.1307 77.4053C9.7509 79.7811 7.99553 82.7085 7.02098 85.9269C6.04643 89.1453 5.88294 92.5547 6.54506 95.8516Z" fill="#15253F"/>
<path d="M21.3872 139.673C21.0537 139.421 20.7796 139.099 20.5841 138.73C20.3886 138.36 20.2765 137.953 20.2556 137.535C20.2347 137.118 20.3056 136.701 20.4633 136.314C20.6209 135.927 20.8616 135.579 21.1682 135.295L17.0898 125.991L22.2928 126.884L25.3679 135.582C25.8109 136.129 26.0379 136.819 26.006 137.522C25.974 138.225 25.6854 138.891 25.1947 139.396C24.704 139.9 24.0454 140.207 23.3436 140.258C22.6419 140.309 21.9457 140.101 21.3872 139.673Z" fill="#FFB6B6"/>
<path d="M8.04883 113.333L9.99052 89.3048C10.1465 87.4003 11.0515 85.6356 12.5071 84.3976C13.9627 83.1597 15.8499 82.5497 17.7546 82.7015C18.8091 82.7868 19.8319 83.1031 20.7503 83.6281C21.6688 84.1531 22.4604 84.8738 23.069 85.7391C23.6776 86.6044 24.0883 87.5931 24.2718 88.635C24.4553 89.6769 24.4072 90.7464 24.131 91.7676L18.5409 112.427L25.1769 129.908L20.0722 133.025L8.04883 113.333Z" fill="#15253F"/>
<path d="M0.410156 78.1291L25.1154 73.0781C25.7957 70.8088 27.099 68.7251 23.5009 65.1813C22.9434 62.4546 21.3496 60.0506 19.0551 58.4756C16.7605 56.9005 13.9443 56.2772 11.1995 56.737C5.52881 56.2324 2.34317 60.2626 2.35961 65.6723L0.410156 78.1291Z" fill="#2F2E41"/>
<path d="M14.8158 74.7165C19.4537 74.7165 23.2136 70.9567 23.2136 66.3187C23.2136 61.6807 19.4537 57.9209 14.8158 57.9209C10.1778 57.9209 6.41797 61.6807 6.41797 66.3187C6.41797 70.9567 10.1778 74.7165 14.8158 74.7165Z" fill="#FFB8B8"/>
<path d="M8.48642 59.2934C9.61963 57.5965 11.3776 56.4162 13.3773 56.0099L14.9609 55.6861C16.977 55.2739 19.0742 55.6795 20.7913 56.8136C22.5083 57.9477 23.7045 59.7174 24.1167 61.7335C22.9788 63.2153 16.232 64.3382 12.2103 64.8278C13.3366 68.8916 17.6663 72.2259 17.1979 74.6972L1.36124 77.935L1.03745 76.3514C-1.74101 69.6699 2.13472 62.8304 8.48642 59.2934Z" fill="#2F2E41"/>
<path d="M0.341797 78.5813L25.047 73.5302C25.7274 71.2609 27.0306 69.1772 23.4325 65.6335C22.875 62.9068 21.2812 60.5028 18.9867 58.9277C16.6922 57.3526 13.876 56.7294 11.1311 57.1892C5.46045 56.6845 2.27481 60.7148 2.29125 66.1244L0.341797 78.5813Z" fill="#2F2E41"/>
<path d="M14.7474 75.1686C19.3854 75.1686 23.1452 71.4088 23.1452 66.7708C23.1452 62.1329 19.3854 58.373 14.7474 58.373C10.1094 58.373 6.34961 62.1329 6.34961 66.7708C6.34961 71.4088 10.1094 75.1686 14.7474 75.1686Z" fill="#FFB8B8"/>
<path d="M8.41612 59.7451C9.54932 58.0481 11.3073 56.8679 13.3069 56.4615L14.8906 56.1378C16.9067 55.7256 19.0039 56.1311 20.721 57.2652C22.438 58.3993 23.6342 60.1691 24.0464 62.1852C22.9085 63.667 16.1617 64.7899 12.14 65.2794C13.2663 69.3433 17.596 72.6776 17.1276 75.1488L1.29094 78.3867L0.967142 76.803C-1.81133 70.1216 2.06441 63.2821 8.41612 59.7451Z" fill="#2F2E41"/>
<path d="M130.482 139.103H66.4283C64.6535 139.101 62.9521 138.395 61.6972 137.14C60.4423 135.885 59.7364 134.184 59.7344 132.409V48.811C59.7364 47.0363 60.4423 45.3349 61.6972 44.08C62.9521 42.8251 64.6536 42.1192 66.4283 42.1172H130.482C132.257 42.1192 133.958 42.8251 135.213 44.08C136.468 45.3349 137.174 47.0363 137.176 48.811V132.409C137.174 134.184 136.468 135.885 135.213 137.14C133.958 138.395 132.257 139.101 130.482 139.103Z" fill="#F0F0F0"/>
<path d="M130.483 139.426H66.4292C64.5688 139.424 62.7852 138.684 61.4697 137.368C60.1542 136.053 59.4142 134.269 59.4121 132.409V48.8111C59.4142 46.9507 60.1542 45.1671 61.4697 43.8516C62.7852 42.5361 64.5688 41.7961 66.4292 41.7939H130.483C132.343 41.796 134.127 42.536 135.443 43.8515C136.758 45.167 137.498 46.9506 137.5 48.8111V132.409C137.498 134.269 136.758 136.053 135.443 137.368C134.127 138.684 132.343 139.424 130.483 139.426ZM66.4292 42.4405C64.7402 42.4424 63.121 43.1142 61.9267 44.3085C60.7324 45.5028 60.0606 47.1221 60.0587 48.8111V132.409C60.0606 134.098 60.7323 135.717 61.9266 136.911C63.1209 138.106 64.7402 138.778 66.4292 138.78H130.483C132.172 138.778 133.791 138.106 134.986 136.912C136.18 135.717 136.852 134.098 136.854 132.409V48.8111C136.852 47.122 136.18 45.5028 134.986 44.3085C133.791 43.1142 132.172 42.4424 130.483 42.4405H66.4292Z" fill="#15253F"/>
<path d="M234.543 139.103H170.489C168.714 139.101 167.013 138.395 165.758 137.14C164.503 135.885 163.797 134.184 163.795 132.409V48.811C163.797 47.0363 164.503 45.3349 165.758 44.08C167.013 42.8251 168.714 42.1192 170.489 42.1172H234.543C236.317 42.1192 238.019 42.8251 239.274 44.08C240.529 45.3349 241.234 47.0363 241.236 48.811V132.409C241.234 134.184 240.529 135.885 239.274 137.14C238.019 138.395 236.317 139.101 234.543 139.103Z" fill="#F0F0F0"/>
<path d="M265.071 12.6184H43.8386C43.7528 12.6165 43.6712 12.5811 43.6112 12.5197C43.5512 12.4584 43.5176 12.376 43.5176 12.2902C43.5176 12.2043 43.5512 12.1219 43.6112 12.0606C43.6712 11.9992 43.7528 11.9638 43.8386 11.9619H265.071C265.157 11.9638 265.238 11.9992 265.298 12.0606C265.358 12.1219 265.392 12.2043 265.392 12.2902C265.392 12.376 265.358 12.4584 265.298 12.5197C265.238 12.5811 265.157 12.6165 265.071 12.6184Z" fill="#CACACA"/>
<path d="M51.0652 8.02271C53.0159 8.02271 54.5972 6.40613 54.5972 4.41199C54.5972 2.41784 53.0159 0.80127 51.0652 0.80127C49.1145 0.80127 47.5332 2.41784 47.5332 4.41199C47.5332 6.40613 49.1145 8.02271 51.0652 8.02271Z" fill="#3F3D56"/>
<path d="M63.2664 8.02271C65.2171 8.02271 66.7984 6.40613 66.7984 4.41199C66.7984 2.41784 65.2171 0.80127 63.2664 0.80127C61.3157 0.80127 59.7344 2.41784 59.7344 4.41199C59.7344 6.40613 61.3157 8.02271 63.2664 8.02271Z" fill="#3F3D56"/>
<path d="M75.4676 8.02271C77.4182 8.02271 78.9996 6.40613 78.9996 4.41199C78.9996 2.41784 77.4182 0.80127 75.4676 0.80127C73.5169 0.80127 71.9355 2.41784 71.9355 4.41199C71.9355 6.40613 73.5169 8.02271 75.4676 8.02271Z" fill="#3F3D56"/>
<path d="M257.759 3.00977H249.089C248.918 3.00598 248.755 2.93515 248.635 2.81245C248.514 2.68974 248.447 2.52492 248.447 2.35327C248.447 2.18163 248.514 2.01681 248.635 1.8941C248.755 1.7714 248.918 1.70057 249.089 1.69678H257.759C257.931 1.70057 258.094 1.7714 258.214 1.8941C258.334 2.01681 258.401 2.18163 258.401 2.35327C258.401 2.52492 258.334 2.68974 258.214 2.81245C258.094 2.93515 257.931 3.00598 257.759 3.00977Z" fill="#3F3D56"/>
<path d="M257.759 5.47168H249.089C248.918 5.46789 248.755 5.39706 248.635 5.27436C248.514 5.15165 248.447 4.98683 248.447 4.81519C248.447 4.64354 248.514 4.47872 248.635 4.35601C248.755 4.23331 248.918 4.16248 249.089 4.15869H257.759C257.931 4.16248 258.094 4.23331 258.214 4.35601C258.334 4.47872 258.401 4.64354 258.401 4.81519C258.401 4.98683 258.334 5.15165 258.214 5.27436C258.094 5.39706 257.931 5.46789 257.759 5.47168Z" fill="#3F3D56"/>
<path d="M257.759 7.93359H249.089C248.918 7.92981 248.755 7.85898 248.635 7.73627C248.514 7.61357 248.447 7.44875 248.447 7.2771C248.447 7.10546 248.514 6.94063 248.635 6.81793C248.755 6.69522 248.918 6.62439 249.089 6.62061H257.759C257.931 6.62439 258.094 6.69522 258.214 6.81793C258.334 6.94063 258.401 7.10546 258.401 7.2771C258.401 7.44875 258.334 7.61357 258.214 7.73627C258.094 7.85898 257.931 7.92981 257.759 7.93359Z" fill="#3F3D56"/>
<path d="M238.195 40.5963L238.189 40.6021C237.569 39.9719 236.731 39.6042 235.848 39.5751C234.965 39.546 234.104 39.8579 233.444 40.446C232.785 41.0342 232.376 41.8535 232.304 42.7343C232.232 43.6151 232.502 44.4899 233.057 45.1774L233.051 45.1833L237.638 50.328L242.782 45.741C243.465 45.1328 243.877 44.2784 243.93 43.3659C243.982 42.4534 243.67 41.5574 243.061 40.8752C242.453 40.193 241.599 39.7803 240.686 39.728C239.774 39.6757 238.878 39.988 238.195 40.5963Z" fill="#D1D3D4"/>
<path d="M77.0005 94.4289C76.8932 94.1914 76.8384 93.9335 76.8399 93.6728C76.8413 93.4121 76.899 93.1548 77.009 92.9185L80.8487 84.6634C81.2275 83.3848 82.0978 82.3085 83.2689 81.6705C84.44 81.0326 85.8162 80.8849 87.0959 81.26C88.3757 81.6351 89.4545 82.5023 90.0958 83.6715C90.7372 84.8407 90.8889 86.2165 90.5175 87.4973L89.2342 96.5406C89.1976 96.7987 89.1057 97.0459 88.9649 97.2653C88.8242 97.4847 88.6378 97.6711 88.4184 97.812C88.1991 97.9528 87.952 98.0448 87.6939 98.0815C87.4358 98.1183 87.1729 98.0989 86.9229 98.0249L78.1387 95.4223C77.8887 95.3483 77.6576 95.2213 77.4611 95.0499C77.2647 94.8785 77.1076 94.6667 77.0005 94.4289Z" fill="#3F3D56"/>
<path d="M118.771 90.3104L109.987 92.9131C109.737 92.9871 109.474 93.0064 109.216 92.9697C108.958 92.933 108.711 92.841 108.492 92.7002C108.272 92.5593 108.086 92.3728 107.945 92.1534C107.804 91.934 107.713 91.6869 107.676 91.4288L106.393 82.3855C106.021 81.1047 106.173 79.7289 106.814 78.5597C107.456 77.3905 108.534 76.5233 109.814 76.1482C111.094 75.7731 112.47 75.9207 113.641 76.5587C114.812 77.1967 115.683 78.2729 116.061 79.5516L119.901 87.8067C120.011 88.0431 120.069 88.3004 120.07 88.561C120.072 88.8217 120.017 89.0796 119.91 89.3172C119.802 89.5548 119.645 89.7666 119.449 89.938C119.252 90.1093 119.021 90.2364 118.771 90.3104Z" fill="#3F3D56"/>
<path d="M84.2142 82.9381L91.1029 77.9281L102.375 74.7969L111.769 76.6756L112.321 81.8665C112.993 88.1805 112.701 94.56 111.456 100.786L111.227 105.585L87.0323 106.423L84.5273 102.039C84.5273 102.039 78.891 96.4026 83.2748 90.1401L84.2142 82.9381Z" fill="#3F3D56"/>
<path d="M217.434 73.0682V78.6357L216.89 85.4374C216.89 85.4374 216.718 91.3769 216.51 96.0618C216.385 98.9097 216.243 101.293 216.12 101.601C215.969 101.978 216.005 103.007 216.092 104.087C216.195 105.337 216.364 106.656 216.392 107.097C216.446 107.92 216.01 111.458 216.01 111.458C216.01 111.458 215.522 120.331 214.814 121.039C214.106 121.747 214.814 123.761 214.814 123.761C211.494 126.209 207.302 123.217 207.302 123.217C208.228 121.742 206.758 111.671 206.758 111.671C206.758 111.671 206.543 108.233 206.107 107.31C205.67 106.386 205.56 100.616 205.56 100.616V92.0696C205.56 92.0696 204.416 90.3198 204.254 89.504C204.092 88.6881 204.254 85.8043 204.254 85.8043L203.058 81.7761L202.24 84.9319C202.24 84.9319 200.121 93.7502 199.738 94.838C199.531 95.5651 199.608 96.344 199.954 97.0163C199.954 97.0163 200.5 98.6942 199.954 99.4639C199.614 99.9461 199.355 100.48 199.184 101.044C199.184 101.044 198.905 104.257 198.415 105.406C197.925 106.555 197.491 107.972 197.491 107.972C197.491 107.972 197.606 110.142 197.116 110.632C196.626 111.122 196.465 113.573 196.465 113.573C196.465 113.573 196.572 116.346 195.918 117.326C195.264 118.306 195.264 123.858 195.264 123.858C194.129 124.586 192.822 125 191.475 125.058C190.128 125.115 188.79 124.813 187.598 124.184C187.598 124.184 188.244 123.579 187.754 120.756C187.264 117.934 188.106 110.25 188.106 110.25C188.106 110.25 187.998 108.3 188.542 107.428C189.086 106.555 188.267 104.87 188.485 104.108C188.703 103.346 189.358 99.2073 189.358 99.2073C189.358 99.2073 189.086 89.0293 189.086 88.4854C189.021 87.5172 188.759 86.5724 188.316 85.7093C187.826 84.8396 188.316 78.5254 188.316 78.5254C188.316 78.5254 189.471 75.2619 189.086 74.5538C188.701 73.8456 189.342 72.5936 189.342 72.5936C189.342 72.5936 188.744 71.1234 189.342 70.8515C189.94 70.5795 190.05 69.4917 190.05 69.4917L190.466 64.2115C190.466 64.2115 190.623 61.8152 191.12 61.7074C191.618 61.5996 191.4 60.676 191.89 60.0217C192.129 59.5795 192.293 59.101 192.377 58.6055C192.447 58.3027 192.511 57.9872 192.565 57.6844C192.719 56.8634 192.814 56.1553 192.814 56.1553C196.026 58.8236 212.916 56.9532 212.934 56.9532C214.006 57.1867 215.281 60.9095 216.202 64.1551C217.021 67.0553 217.436 70.0546 217.434 73.0682Z" fill="#3F3D56"/>
<path d="M44.1094 210H53.4911C53.6302 209.748 53.7595 209.49 53.8791 209.228C54.9589 206.916 55.4147 204.336 55.8512 201.808L56.5592 197.703C54.2962 199.348 52.0342 200.993 49.7733 202.636C49.0363 203.173 48.283 203.732 47.5751 204.336C46.0846 205.601 44.7979 207.062 44.2937 208.917C44.2679 209.021 44.242 209.124 44.2225 209.228C44.1689 209.483 44.1311 209.741 44.1094 210Z" fill="#F0F0F0"/>
<path d="M42.7938 209.227C42.7933 209.244 42.7943 209.26 42.797 209.276C42.8284 209.523 42.8869 209.766 42.9715 210H47.1841C47.3165 209.752 47.4289 209.494 47.5201 209.227C47.6481 208.872 47.7402 208.505 47.795 208.132C47.9349 206.863 47.8607 205.58 47.5752 204.336C47.4944 203.932 47.4071 203.525 47.3198 203.124L46.822 200.835L44.3294 204.84C43.4953 206.182 42.6288 207.66 42.7938 209.227Z" fill="#F0F0F0"/>
<path d="M3.57486e-06 209.612C-0.000214673 209.663 0.0095622 209.713 0.0287775 209.76C0.0479928 209.807 0.0762736 209.85 0.111996 209.886C0.147719 209.922 0.190187 209.951 0.236978 209.97C0.283768 209.99 0.333962 210 0.384695 210H59.6429C59.7454 210 59.8437 209.959 59.9161 209.887C59.9886 209.815 60.0293 209.716 60.0293 209.614C60.0293 209.511 59.9886 209.413 59.9161 209.341C59.8437 209.268 59.7454 209.228 59.6429 209.228H0.384695C0.282737 209.228 0.185022 209.268 0.112929 209.34C0.0408353 209.413 0.00023241 209.51 3.57486e-06 209.612Z" fill="#CACACA"/>
<path d="M97.3213 149.449C103.715 149.449 108.899 144.266 108.899 137.872C108.899 131.478 103.715 126.294 97.3213 126.294C90.9274 126.294 85.7441 131.478 85.7441 137.872C85.7441 144.266 90.9274 149.449 97.3213 149.449Z" fill="#15253F"/>
<path d="M95.7421 143.897C95.5422 143.897 95.345 143.851 95.1662 143.761C94.9874 143.672 94.8319 143.542 94.712 143.382L91.5536 139.171C91.4518 139.035 91.3777 138.881 91.3355 138.717C91.2934 138.553 91.2839 138.383 91.3077 138.215C91.3316 138.048 91.3882 137.886 91.4744 137.741C91.5606 137.595 91.6746 137.468 91.8101 137.366C91.9455 137.265 92.0996 137.191 92.2636 137.149C92.4276 137.107 92.5982 137.098 92.7658 137.122C92.9333 137.146 93.0945 137.203 93.24 137.289C93.3856 137.376 93.5127 137.49 93.614 137.625L95.6804 140.38L100.988 132.42C101.081 132.278 101.202 132.157 101.342 132.062C101.483 131.968 101.641 131.902 101.807 131.868C101.973 131.835 102.144 131.834 102.31 131.867C102.477 131.9 102.635 131.965 102.776 132.059C102.917 132.153 103.038 132.274 103.132 132.415C103.226 132.556 103.292 132.714 103.325 132.88C103.358 133.046 103.357 133.217 103.324 133.383C103.291 133.55 103.225 133.708 103.131 133.848L96.8138 143.324C96.6995 143.495 96.5458 143.636 96.3656 143.736C96.1853 143.836 95.9838 143.891 95.778 143.897C95.766 143.897 95.7541 143.897 95.7421 143.897Z" fill="white"/>
<path d="M137.822 172.861C140.143 172.861 142.025 170.979 142.025 168.658C142.025 166.337 140.143 164.456 137.822 164.456C135.501 164.456 133.619 166.337 133.619 168.658C133.619 170.979 135.501 172.861 137.822 172.861Z" fill="#DDDEE5"/>
<path d="M171.086 172.861C173.407 172.861 175.288 170.979 175.288 168.658C175.288 166.337 173.407 164.456 171.086 164.456C168.764 164.456 166.883 166.337 166.883 168.658C166.883 170.979 168.764 172.861 171.086 172.861Z" fill="#DDDEE5"/>
<path d="M153.339 172.861C155.661 172.861 157.542 170.979 157.542 168.658C157.542 166.337 155.661 164.456 153.339 164.456C151.018 164.456 149.137 166.337 149.137 168.658C149.137 170.979 151.018 172.861 153.339 172.861Z" fill="#DDDEE5"/>
</g>
<defs>
<clipPath id="clip0_667_212">
<rect width="265.391" height="209.199" fill="white" transform="translate(0 0.80127)"/>
</clipPath>
</defs>
</svg>
