<svg width="266" height="232" viewBox="0 0 266 232" fill="none" xmlns="http://www.w3.org/2000/svg">
<g clip-path="url(#clip0_667_323)">
<path d="M44.7432 205.852C36.0269 210.552 32.2852 220.527 32.2852 220.527C32.2852 220.527 42.6754 222.882 51.3917 218.182C60.1081 213.482 63.8498 203.507 63.8498 203.507C63.8498 203.507 53.4596 201.152 44.7432 205.852Z" fill="#E4E4E4"/>
<path d="M47.6121 209.082C42.507 217.568 32.3668 220.836 32.3668 220.836C32.3668 220.836 30.5037 210.346 35.6088 201.861C40.7139 193.375 50.8541 190.107 50.8541 190.107C50.8541 190.107 52.7172 200.597 47.6121 209.082Z" fill="#E4E4E4"/>
<path d="M208.934 16.3281H178.008V34.6399H208.934V16.3281Z" fill="#2F2E41"/>
<path d="M147.369 19.2808H131.424V13.7206C131.424 11.6062 132.264 9.57831 133.759 8.08316C135.254 6.58801 137.282 5.74805 139.396 5.74805C141.511 5.74805 143.539 6.58801 145.034 8.08316C146.529 9.57831 147.369 11.6062 147.369 13.7206V19.2808ZM131.777 18.9278H147.016V13.7206C147.016 11.6998 146.213 9.76172 144.784 8.33278C143.355 6.90384 141.417 6.10107 139.396 6.10107C137.376 6.10107 135.438 6.90384 134.009 8.33278C132.58 9.76172 131.777 11.6998 131.777 13.7206V18.9278Z" fill="#3F3D56"/>
<path d="M155.254 18.5163V16.3433L114.703 17.4298L113.42 72.4709L119.421 79.8843L155.254 18.5163Z" fill="#3F3D56"/>
<path d="M162.432 17.751L118.48 18.7512L119.422 79.884L161.837 75.3122L162.432 17.751Z" fill="#15253F"/>
<path d="M199.8 215.817H194.811L192.438 196.574H199.8L199.8 215.817Z" fill="#FFB6B6"/>
<path d="M201.073 220.652L184.986 220.652V220.448C184.986 218.788 185.646 217.195 186.82 216.021C187.994 214.847 189.587 214.187 191.248 214.187L201.073 214.187L201.073 220.652Z" fill="#2F2E41"/>
<path d="M181.489 215.817H176.5L174.127 196.574H181.49L181.489 215.817Z" fill="#FFB6B6"/>
<path d="M182.76 220.652L166.674 220.652V220.448C166.674 218.788 167.334 217.195 168.508 216.021C169.682 214.847 171.274 214.187 172.935 214.187L182.76 214.187L182.76 220.652Z" fill="#2F2E41"/>
<path d="M166.838 95.3267C166.838 95.3267 159.549 111.024 166.134 142.62C172.719 174.216 172.773 208.904 172.773 208.904L182.842 209.068L188.498 134.389L191.46 208.014H201.38L210.123 135.552C210.123 135.552 215.876 103.196 203.046 97.403L166.838 95.3267Z" fill="#2F2E41"/>
<path d="M201.728 39.9297L179.682 37.8975C172.768 42.9367 168.888 51.9874 169.685 61.3257C170.765 73.9872 170.399 91.4116 161.732 98.9814C161.732 98.9814 185.354 117.625 206.338 99.9377C206.338 99.9377 199.163 80.7153 204.089 73.039C209.015 65.3627 210.793 43.7955 201.728 39.9297Z" fill="#E4E4E4"/>
<path d="M136.128 8.64408C136.06 9.27958 136.133 9.92218 136.341 10.5266C136.548 11.131 136.886 11.6826 137.33 12.1424C137.773 12.6022 138.313 12.9592 138.909 13.1881C139.506 13.4169 140.146 13.5122 140.783 13.4672L169.892 40.6327L175.109 32.6855L144.856 8.4816C144.709 7.41567 144.176 6.44057 143.359 5.74107C142.541 5.04158 141.495 4.66628 140.42 4.68631C139.344 4.70634 138.313 5.1203 137.522 5.84974C136.731 6.57918 136.235 7.57343 136.128 8.64408Z" fill="#FFB6B6"/>
<path d="M164.456 36.4358L171.362 29.3423C171.558 29.1405 171.796 28.9834 172.058 28.8817C172.321 28.78 172.603 28.7361 172.884 28.753C173.165 28.77 173.439 28.8473 173.688 28.9797C173.936 29.1122 174.153 29.2966 174.324 29.5206L180.311 37.3672C181.338 38.3783 181.922 39.7554 181.935 41.1964C181.948 42.6374 181.389 44.0248 180.381 45.0544C179.373 46.0841 177.997 46.6719 176.556 46.6891C175.115 46.7062 173.726 46.1513 172.694 45.146L164.714 39.3927C164.485 39.2279 164.295 39.0158 164.156 38.7709C164.017 38.5259 163.932 38.2539 163.908 37.9733C163.883 37.6927 163.92 37.4101 164.014 37.1448C164.109 36.8795 164.26 36.6376 164.456 36.4358Z" fill="#E4E4E4"/>
<path d="M244.272 74.7983C244.305 74.16 244.196 73.5224 243.956 72.9305C243.715 72.3385 243.347 71.8066 242.878 71.3721C242.41 70.9376 241.851 70.6112 241.243 70.4158C240.634 70.2205 239.99 70.1609 239.356 70.2413L208.783 44.7349L204.016 52.9597L235.567 75.4454C235.773 76.5015 236.359 77.4455 237.214 78.0985C238.069 78.7515 239.134 79.0681 240.207 78.9884C241.28 78.9086 242.287 78.438 243.036 77.6657C243.785 76.8935 244.225 75.8732 244.272 74.7983Z" fill="#FFB6B6"/>
<path d="M214.445 48.6229L207.944 56.089C207.759 56.3015 207.531 56.4716 207.274 56.5877C207.017 56.7038 206.739 56.7633 206.457 56.762C206.175 56.7607 205.897 56.6988 205.642 56.5803C205.386 56.4619 205.159 56.2898 204.976 56.0757L198.563 48.5738C197.481 47.6213 196.821 46.2788 196.728 44.8406C196.635 43.4025 197.116 41.9861 198.065 40.9019C199.015 39.8178 200.356 39.1544 201.794 39.0573C203.231 38.9602 204.649 39.4372 205.736 40.3838L214.023 45.6849C214.261 45.8367 214.462 46.0379 214.615 46.2747C214.767 46.5116 214.867 46.7785 214.907 47.0573C214.947 47.3361 214.926 47.6203 214.847 47.8905C214.767 48.1606 214.63 48.4104 214.445 48.6229Z" fill="#E4E4E4"/>
<path d="M247.379 85.5833H235.301V81.3715C235.301 79.7699 235.937 78.2338 237.07 77.1013C238.202 75.9688 239.738 75.3325 241.34 75.3325C242.941 75.3325 244.477 75.9688 245.61 77.1013C246.743 78.2338 247.379 79.7699 247.379 81.3715L247.379 85.5833ZM235.568 85.3158H247.111V81.3715C247.111 79.8408 246.503 78.3728 245.421 77.2904C244.339 76.208 242.87 75.5999 241.34 75.5999C239.809 75.5999 238.341 76.208 237.259 77.2904C236.176 78.3728 235.568 79.8408 235.568 81.3715V85.3158Z" fill="#3F3D56"/>
<path d="M253.352 85.0039V83.3579L222.636 84.1811L221.664 125.873L226.21 131.489L253.352 85.0039Z" fill="#3F3D56"/>
<path d="M258.788 84.4248L225.496 85.1825L226.209 131.489L258.338 128.026L258.788 84.4248Z" fill="#15253F"/>
<path d="M192.25 34.2329C199.442 34.2329 205.272 28.4028 205.272 21.2112C205.272 14.0195 199.442 8.18945 192.25 8.18945C185.059 8.18945 179.229 14.0195 179.229 21.2112C179.229 28.4028 185.059 34.2329 192.25 34.2329Z" fill="#FFB6B6"/>
<path d="M186.256 15.4077C190.761 19.8222 198.6 20.2453 203.554 16.3413C204.929 21.0833 205.079 26.0965 203.991 30.9124C202.903 35.7284 200.612 40.19 197.333 43.8805C200.088 44.8762 203.26 44.2212 205.723 42.6342C208.186 41.0473 210.01 38.6243 211.387 36.0378C214.794 29.6349 215.647 21.8167 213.237 14.976C210.826 8.13522 205.051 2.4628 198.034 0.626036C191.017 -1.21073 182.972 1.05813 178.284 6.59267C173.382 12.3801 172.588 20.8601 174.736 28.134C176.884 35.4079 181.596 41.6545 186.773 47.1975C184.286 40.8037 182.637 34.115 181.867 27.2981C181.604 24.9634 181.45 22.5569 182.11 20.3019C182.769 18.0469 184.392 15.9465 186.655 15.3129" fill="#2F2E41"/>
<path d="M264.909 221.42H109.87C109.762 221.42 109.658 221.377 109.582 221.301C109.506 221.224 109.463 221.121 109.463 221.013C109.463 220.905 109.506 220.801 109.582 220.725C109.658 220.649 109.762 220.606 109.87 220.606H264.909C265.017 220.606 265.121 220.649 265.197 220.725C265.273 220.801 265.316 220.905 265.316 221.013C265.316 221.121 265.273 221.224 265.197 221.301C265.121 221.377 265.017 221.42 264.909 221.42Z" fill="#CACACA"/>
<path d="M66.3293 221.42H0.406928C0.299004 221.42 0.195506 221.377 0.119192 221.301C0.0428786 221.224 0 221.121 0 221.013C0 220.905 0.0428786 220.801 0.119192 220.725C0.195506 220.649 0.299004 220.606 0.406928 220.606H66.3293C66.4372 220.606 66.5407 220.649 66.617 220.725C66.6933 220.801 66.7362 220.905 66.7362 221.013C66.7362 221.121 66.6933 221.224 66.617 221.301C66.5407 221.377 66.4372 221.42 66.3293 221.42Z" fill="#CACACA"/>
<path d="M240.869 186.094H228.791V181.883C228.791 180.281 229.427 178.745 230.56 177.613C231.692 176.48 233.228 175.844 234.83 175.844C236.432 175.844 237.968 176.48 239.1 177.613C240.233 178.745 240.869 180.281 240.869 181.883L240.869 186.094ZM229.058 185.827H240.602V181.883C240.602 180.352 239.994 178.884 238.911 177.802C237.829 176.719 236.361 176.111 234.83 176.111C233.299 176.111 231.831 176.719 230.749 177.802C229.666 178.884 229.058 180.352 229.058 181.883V185.827Z" fill="#CACACA"/>
<path d="M246.84 185.515V183.869L216.124 184.692L215.152 226.384L219.698 232L246.84 185.515Z" fill="#CACACA"/>
<path d="M252.277 184.936L218.984 185.694L219.697 232L251.826 228.537L252.277 184.936Z" fill="#E4E4E4"/>
</g>
<defs>
<clipPath id="clip0_667_323">
<rect width="265.317" height="232" fill="white"/>
</clipPath>
</defs>
</svg>
