<svg width="266" height="210" viewBox="0 0 266 210" fill="none" xmlns="http://www.w3.org/2000/svg">
<g clip-path="url(#clip0_667_1123)">
<path d="M130.907 47.5799H129.807V17.4426C129.807 12.8166 127.97 8.37996 124.699 5.10884C121.427 1.83771 116.991 5.76836e-06 112.365 1.10702e-10H48.5149C46.2243 -8.16033e-06 43.9562 0.451151 41.8399 1.32772C39.7237 2.20428 37.8008 3.48909 36.1811 5.10878C34.5614 6.72847 33.2766 8.65132 32.4 10.7676C31.5234 12.8838 31.0723 15.152 31.0723 17.4426V182.778C31.0723 185.068 31.5234 187.337 32.4 189.453C33.2766 191.569 34.5614 193.492 36.1811 195.112C37.8008 196.731 39.7236 198.016 41.8399 198.893C43.9561 199.769 46.2243 200.221 48.5149 200.221H112.365C114.655 200.221 116.923 199.769 119.04 198.893C121.156 198.016 123.079 196.731 124.699 195.112C126.318 193.492 127.603 191.569 128.48 189.453C129.356 187.337 129.807 185.069 129.807 182.778V69.0321H130.907V47.5799Z" fill="#3F3D56"/>
<path d="M112.937 4.95068H104.603C104.986 5.89037 105.132 6.90989 105.029 7.91944C104.925 8.92899 104.575 9.89758 104.009 10.7399C103.443 11.5822 102.678 12.2724 101.783 12.7496C100.887 13.2268 99.8877 13.4765 98.8729 13.4766H62.2941C61.2793 13.4765 60.28 13.2268 59.3844 12.7496C58.4888 12.2724 57.7242 11.5822 57.1582 10.7399C56.5921 9.89758 56.2418 8.92899 56.1383 7.91944C56.0347 6.90989 56.181 5.89037 56.5643 4.95068H48.7799C45.3252 4.95068 42.012 6.32304 39.5691 8.76588C37.1263 11.2087 35.7539 14.5219 35.7539 17.9766V183.069C35.7539 184.78 36.0908 186.474 36.7454 188.054C37.4001 189.635 38.3595 191.07 39.5691 192.28C40.7787 193.49 42.2147 194.449 43.795 195.104C45.3754 195.758 47.0693 196.095 48.7799 196.095H112.937C116.392 196.095 119.705 194.723 122.148 192.28C124.591 189.837 125.963 186.524 125.963 183.069V17.9766C125.963 16.266 125.626 14.5722 124.972 12.9918C124.317 11.4114 123.358 9.97546 122.148 8.76589C120.938 7.55632 119.502 6.59684 117.922 5.94222C116.342 5.28761 114.648 4.95068 112.937 4.95068ZM111.537 81.5382C111.534 82.4323 111.178 83.2889 110.546 83.9211C109.914 84.5533 109.057 84.9096 108.163 84.9122H91.8553C90.9613 84.9096 90.1046 84.5533 89.4725 83.9211C88.8403 83.2889 88.484 82.4323 88.4814 81.5382V80.6947C88.484 79.8007 88.8403 78.944 89.4725 78.3119C90.1046 77.6797 90.9613 77.3234 91.8553 77.3208H108.163C109.057 77.3234 109.914 77.6797 110.546 78.3119C111.178 78.944 111.534 79.8007 111.537 80.6947V81.5382ZM113.365 66.6365C113.362 67.5305 113.006 68.3872 112.373 69.0193C111.741 69.6515 110.885 70.0078 109.991 70.0105H51.5081C50.614 70.0078 49.7574 69.6515 49.1252 69.0193C48.493 68.3872 48.1367 67.5305 48.1341 66.6365V65.793C48.1367 64.8989 48.493 64.0423 49.1252 63.4101C49.7574 62.7779 50.614 62.4216 51.5081 62.419H109.991C110.885 62.4216 111.741 62.7779 112.373 63.4101C113.006 64.0423 113.362 64.8989 113.365 65.793V66.6365ZM113.365 51.7347C113.362 52.6287 113.006 53.4854 112.373 54.1175C111.741 54.7497 110.885 55.106 109.991 55.1087H51.5081C50.614 55.106 49.7574 54.7497 49.1252 54.1176C48.493 53.4854 48.1367 52.6287 48.1341 51.7347V50.8912C48.1367 49.9971 48.493 49.1405 49.1252 48.5083C49.7574 47.8761 50.614 47.5198 51.5081 47.5172H109.991C110.885 47.5198 111.741 47.8761 112.373 48.5083C113.006 49.1405 113.362 49.9971 113.365 50.8912V51.7347ZM113.365 36.8329C113.362 37.7269 113.006 38.5836 112.373 39.2158C111.741 39.8479 110.885 40.2043 109.991 40.2069H51.5081C50.614 40.2043 49.7574 39.8479 49.1252 39.2158C48.493 38.5836 48.1367 37.7269 48.1341 36.8329V35.9894C48.1367 35.0954 48.493 34.2387 49.1252 33.6065C49.7574 32.9743 50.614 32.618 51.5081 32.6154H109.991C110.885 32.618 111.741 32.9743 112.373 33.6065C113.006 34.2387 113.362 35.0954 113.365 35.9894V36.8329Z" fill="white"/>
<path d="M52.7728 68.3235C53.8598 68.3235 54.741 67.4423 54.741 66.3554C54.741 65.2684 53.8598 64.3872 52.7728 64.3872C51.6859 64.3872 50.8047 65.2684 50.8047 66.3554C50.8047 67.4423 51.6859 68.3235 52.7728 68.3235Z" fill="white"/>
<path d="M59.2396 68.3235C60.3266 68.3235 61.2078 67.4423 61.2078 66.3554C61.2078 65.2684 60.3266 64.3872 59.2396 64.3872C58.1527 64.3872 57.2715 65.2684 57.2715 66.3554C57.2715 67.4423 58.1527 68.3235 59.2396 68.3235Z" fill="white"/>
<path d="M65.7064 68.3235C66.7934 68.3235 67.6746 67.4423 67.6746 66.3554C67.6746 65.2684 66.7934 64.3872 65.7064 64.3872C64.6195 64.3872 63.7383 65.2684 63.7383 66.3554C63.7383 67.4423 64.6195 68.3235 65.7064 68.3235Z" fill="white"/>
<path d="M72.1732 68.3235C73.2602 68.3235 74.1414 67.4423 74.1414 66.3554C74.1414 65.2684 73.2602 64.3872 72.1732 64.3872C71.0863 64.3872 70.2051 65.2684 70.2051 66.3554C70.2051 67.4423 71.0863 68.3235 72.1732 68.3235Z" fill="white"/>
<path d="M93.2611 83.2249C94.3481 83.2249 95.2293 82.3437 95.2293 81.2567C95.2293 80.1698 94.3481 79.2886 93.2611 79.2886C92.1741 79.2886 91.293 80.1698 91.293 81.2567C91.293 82.3437 92.1741 83.2249 93.2611 83.2249Z" fill="white"/>
<path d="M99.7279 83.2249C100.815 83.2249 101.696 82.3437 101.696 81.2567C101.696 80.1698 100.815 79.2886 99.7279 79.2886C98.6409 79.2886 97.7598 80.1698 97.7598 81.2567C97.7598 82.3437 98.6409 83.2249 99.7279 83.2249Z" fill="white"/>
<path d="M106.195 83.2249C107.282 83.2249 108.163 82.3437 108.163 81.2567C108.163 80.1698 107.282 79.2886 106.195 79.2886C105.108 79.2886 104.227 80.1698 104.227 81.2567C104.227 82.3437 105.108 83.2249 106.195 83.2249Z" fill="white"/>
<path d="M113.817 106.758H47.1192C45.5522 106.758 44.0494 107.38 42.9414 108.488C41.8334 109.596 41.2109 111.099 41.2109 112.666V145.163C41.2109 146.729 41.8334 148.232 42.9414 149.34C44.0494 150.448 45.5522 151.071 47.1192 151.071H113.817C115.384 151.071 116.887 150.448 117.995 149.34C119.103 148.232 119.725 146.729 119.725 145.163V112.666C119.725 111.099 119.103 109.596 117.995 108.488C116.887 107.38 115.384 106.758 113.817 106.758ZM45.469 110.788C45.6007 110.764 48.7238 110.233 51.31 111.789C53.896 113.345 54.8896 116.353 54.9305 116.481L55.035 116.805L54.6995 116.865C54.2207 116.939 53.7366 116.975 53.2521 116.971C51.7149 117 50.1979 116.618 48.8583 115.863C46.2723 114.308 45.2789 111.299 45.2379 111.172L45.1334 110.848L45.469 110.788ZM59.9473 140.959H48.0512C47.1836 140.959 46.3515 140.614 45.7379 140.001C45.1244 139.387 44.7798 138.555 44.7798 137.688C44.7798 136.82 45.1244 135.988 45.7379 135.374C46.3515 134.761 47.1836 134.416 48.0512 134.416H59.9473C60.8149 134.416 61.647 134.761 62.2605 135.374C62.874 135.988 63.2187 136.82 63.2187 137.688C63.2187 138.555 62.874 139.387 62.2605 140.001C61.647 140.614 60.8149 140.959 59.9473 140.959ZM114.074 140.364C114.072 141.31 113.695 142.216 113.026 142.885C112.357 143.553 111.451 143.93 110.506 143.933H101.584C100.638 143.93 99.7318 143.553 99.0631 142.885C98.3944 142.216 98.0175 141.31 98.0148 140.364V135.011C98.0175 134.065 98.3944 133.159 99.0631 132.491C99.7318 131.822 100.638 131.445 101.584 131.442H110.506C111.451 131.445 112.357 131.822 113.026 132.491C113.695 133.159 114.072 134.065 114.074 135.011L114.074 140.364Z" fill="#15253F"/>
<path d="M104.459 139.261H100.872C100.616 139.261 100.37 139.363 100.189 139.544C100.008 139.725 99.9062 139.971 99.9062 140.227C99.9062 140.483 100.008 140.729 100.189 140.91C100.37 141.091 100.616 141.193 100.872 141.193H104.459C104.716 141.193 104.961 141.091 105.142 140.91C105.323 140.729 105.425 140.483 105.425 140.227C105.425 139.971 105.323 139.725 105.142 139.544C104.961 139.363 104.716 139.261 104.459 139.261Z" fill="#3F3D56"/>
<path d="M111.082 139.261H107.495C107.239 139.261 106.993 139.363 106.812 139.544C106.631 139.725 106.529 139.971 106.529 140.227C106.529 140.483 106.631 140.729 106.812 140.91C106.993 141.091 107.239 141.193 107.495 141.193H111.082C111.339 141.193 111.584 141.091 111.765 140.91C111.946 140.729 112.048 140.483 112.048 140.227C112.048 139.971 111.946 139.725 111.765 139.544C111.584 139.363 111.339 139.261 111.082 139.261Z" fill="#3F3D56"/>
<path d="M104.459 136.535H100.872C100.616 136.535 100.37 136.637 100.189 136.818C100.008 136.999 99.9062 137.245 99.9062 137.501C99.9062 137.757 100.008 138.003 100.189 138.184C100.37 138.365 100.616 138.467 100.872 138.467H104.459C104.716 138.467 104.961 138.365 105.142 138.184C105.323 138.003 105.425 137.757 105.425 137.501C105.425 137.245 105.323 136.999 105.142 136.818C104.961 136.637 104.716 136.535 104.459 136.535Z" fill="#3F3D56"/>
<path d="M111.082 136.535H107.495C107.239 136.535 106.993 136.637 106.812 136.818C106.631 136.999 106.529 137.245 106.529 137.501C106.529 137.757 106.631 138.003 106.812 138.184C106.993 138.365 107.239 138.467 107.495 138.467H111.082C111.339 138.467 111.584 138.365 111.765 138.184C111.947 138.003 112.048 137.757 112.048 137.501C112.048 137.245 111.947 136.999 111.765 136.818C111.584 136.637 111.339 136.535 111.082 136.535Z" fill="#3F3D56"/>
<path d="M104.459 133.864H100.872C100.616 133.864 100.37 133.966 100.189 134.147C100.008 134.328 99.9062 134.573 99.9062 134.83C99.9062 135.086 100.008 135.331 100.189 135.513C100.37 135.694 100.616 135.795 100.872 135.795H104.459C104.716 135.795 104.961 135.694 105.142 135.513C105.323 135.331 105.425 135.086 105.425 134.83C105.425 134.573 105.323 134.328 105.142 134.147C104.961 133.966 104.716 133.864 104.459 133.864Z" fill="#3F3D56"/>
<path d="M111.082 133.864H107.495C107.239 133.864 106.993 133.966 106.812 134.147C106.631 134.328 106.529 134.573 106.529 134.83C106.529 135.086 106.631 135.331 106.812 135.513C106.993 135.694 107.239 135.795 107.495 135.795H111.082C111.339 135.795 111.584 135.694 111.765 135.513C111.947 135.331 112.048 135.086 112.048 134.83C112.048 134.573 111.947 134.328 111.765 134.147C111.584 133.966 111.339 133.864 111.082 133.864Z" fill="#3F3D56"/>
<path d="M160.012 119H151.312V127.699H160.012V119Z" fill="#E6E6E6"/>
<path d="M141.059 124.281H155.351V138.574H141.059V124.281ZM154.73 124.903H141.68V137.952H154.73V124.903Z" fill="#3F3D56"/>
<path d="M8.69969 47.2271H0V55.9267H8.69969V47.2271Z" fill="#E6E6E6"/>
<path d="M18.9525 50.6444H4.66016V36.3521H18.9525V50.6444ZM5.28156 50.023H18.3311V36.9735H5.28156V50.023Z" fill="#3F3D56"/>
<path d="M202.912 205.505H199.103L197.291 190.812H202.913L202.912 205.505Z" fill="#FFB8B8"/>
<path d="M196.383 204.416H203.729V209.041H191.758C191.758 207.815 192.245 206.638 193.113 205.771C193.98 204.903 195.156 204.416 196.383 204.416Z" fill="#2F2E41"/>
<path d="M221.865 205.505H218.056L216.244 190.812H221.866L221.865 205.505Z" fill="#FFB8B8"/>
<path d="M215.336 204.416H222.683V209.041H210.711C210.711 207.815 211.198 206.638 212.066 205.771C212.933 204.903 214.11 204.416 215.336 204.416Z" fill="#2F2E41"/>
<path d="M183.805 152.96C183.531 152.556 183.348 152.097 183.271 151.616C183.193 151.134 183.222 150.641 183.356 150.172C183.49 149.702 183.725 149.268 184.044 148.899C184.364 148.531 184.76 148.236 185.206 148.038L198.155 112.348L204.526 115.825L189.742 149.931C190.026 150.702 190.018 151.55 189.719 152.316C189.42 153.081 188.85 153.71 188.118 154.083C187.387 154.456 186.543 154.548 185.748 154.341C184.953 154.134 184.262 153.643 183.805 152.96Z" fill="#FFB8B8"/>
<path d="M219.92 159.666C219.497 159.424 219.132 159.091 218.851 158.692C218.57 158.293 218.38 157.837 218.294 157.357C218.209 156.877 218.229 156.383 218.355 155.912C218.48 155.44 218.708 155.002 219.021 154.628L215.01 116.875L222.261 117.206L223.928 154.341C224.522 154.909 224.886 155.675 224.953 156.494C225.019 157.313 224.783 158.128 224.289 158.784C223.795 159.44 223.078 159.893 222.272 160.055C221.467 160.218 220.63 160.08 219.92 159.666Z" fill="#FFB8B8"/>
<path d="M208.352 105.738C212.566 105.738 215.983 102.321 215.983 98.1068C215.983 93.8922 212.566 90.4756 208.352 90.4756C204.137 90.4756 200.721 93.8922 200.721 98.1068C200.721 102.321 204.137 105.738 208.352 105.738Z" fill="#FFB8B8"/>
<path d="M219.872 151.08H196.865L196.893 150.901C196.934 150.633 200.993 124.044 198 115.345C197.699 114.491 197.726 113.555 198.074 112.718C198.422 111.882 199.067 111.204 199.885 110.814C204.164 108.799 212.378 106.318 219.311 112.34C220.331 113.24 221.127 114.366 221.637 115.627C222.148 116.889 222.357 118.252 222.25 119.609L219.872 151.08Z" fill="#CCCCCC"/>
<path d="M201.284 127.974L190.926 125.872L195.781 114.367C196.071 113.253 196.792 112.299 197.785 111.715C198.778 111.132 199.961 110.965 201.076 111.253C202.191 111.541 203.147 112.26 203.733 113.251C204.319 114.242 204.488 115.426 204.203 116.541L201.284 127.974Z" fill="#CCCCCC"/>
<path d="M214.55 131.876L213.927 117.602C213.455 114.918 214.991 112.382 217.353 111.967C219.716 111.554 222.024 113.415 222.498 116.118L224.839 129.456L214.55 131.876Z" fill="#CCCCCC"/>
<path d="M219.106 149.372C222.807 163.47 223.211 181.396 222.213 200.948L217.241 200.327L208.231 163.043L203.26 200.948L197.667 200.638C195.996 180.122 194.369 162.51 197.046 150.925L219.106 149.372Z" fill="#2F2E41"/>
<path d="M213.382 104.004C211.958 105.521 209.314 104.707 209.129 102.635C209.114 102.474 209.115 102.312 209.132 102.152C209.228 101.234 209.758 100.401 209.631 99.4318C209.602 99.1906 209.512 98.9608 209.37 98.7641C208.235 97.245 205.572 99.4436 204.502 98.0684C203.845 97.2251 204.617 95.8974 204.113 94.9549C203.448 93.711 201.479 94.3247 200.243 93.6434C198.869 92.8855 198.952 90.7771 199.856 89.4947C200.959 87.9307 202.893 87.0962 204.804 86.9759C206.714 86.8557 208.611 87.372 210.394 88.067C212.42 88.8566 214.429 89.9478 215.676 91.7294C217.192 93.896 217.338 96.8087 216.58 99.3422C216.119 100.883 214.544 102.766 213.382 104.004Z" fill="#2F2E41"/>
<path d="M265.689 209.414H147.311C147.228 209.414 147.149 209.381 147.091 209.323C147.033 209.265 147 209.186 147 209.103C147 209.021 147.033 208.942 147.091 208.883C147.149 208.825 147.228 208.792 147.311 208.792H265.689C265.771 208.792 265.85 208.825 265.908 208.883C265.967 208.942 265.999 209.021 265.999 209.103C265.999 209.186 265.967 209.265 265.908 209.323C265.85 209.381 265.771 209.414 265.689 209.414Z" fill="#3F3D56"/>
</g>
<defs>
<clipPath id="clip0_667_1123">
<rect width="266" height="209.414" fill="white"/>
</clipPath>
</defs>
</svg>
