<svg width="204" height="43" viewBox="0 0 204 43" fill="none" xmlns="http://www.w3.org/2000/svg">
<path d="M1.64 43C1.10667 43 0.84 42.7333 0.84 42.2V7.48C0.84 6.98933 1.02133 6.56267 1.384 6.2L6.696 0.855999C7.05867 0.514665 7.48533 0.343998 7.976 0.343998H15.304C15.7947 0.343998 16.2213 0.514665 16.584 0.855999L21.96 6.264H23.464L28.84 0.855999C29.2027 0.514665 29.6293 0.343998 30.12 0.343998H37.416C37.928 0.343998 38.3547 0.514665 38.696 0.855999L44.04 6.2C44.4027 6.56267 44.584 6.98933 44.584 7.48V42.2C44.584 42.7333 44.3173 43 43.784 43H34.696C34.1627 43 33.896 42.7333 33.896 42.2V8.856H28.04V42.2C28.04 42.7333 27.7733 43 27.24 43H18.184C17.6507 43 17.384 42.7333 17.384 42.2V8.856H11.496V42.2C11.496 42.7333 11.2293 43 10.696 43H1.64ZM53.0775 43C52.5442 43 52.2775 42.7333 52.2775 42.2V1.144C52.2775 0.610664 52.5442 0.343998 53.0775 0.343998H62.1335C62.6668 0.343998 62.9335 0.610664 62.9335 1.144V42.2C62.9335 42.7333 62.6668 43 62.1335 43H53.0775ZM70.43 43C69.8967 43 69.63 42.7333 69.63 42.2V36.184C69.63 35.9067 69.6407 35.6827 69.662 35.512C69.7047 35.3413 69.8327 35.2027 70.046 35.096L78.43 31.256V25.56L70.174 20.44C69.8113 20.2267 69.63 19.9067 69.63 19.48V7.736C69.63 7.39467 69.6513 7.14933 69.694 7C69.7367 6.82933 69.8967 6.648 70.174 6.456L78.59 0.759998C78.8033 0.631997 78.9953 0.535997 79.166 0.471996C79.358 0.386664 79.5927 0.343998 79.87 0.343998H88.51C89.0433 0.343998 89.31 0.610664 89.31 1.144V6.584C89.31 7.05333 89.15 7.37333 88.83 7.544L80.446 11V16.92L88.83 21.72C89.15 21.8693 89.31 22.2107 89.31 22.744V36.664C89.31 36.8347 89.278 37.016 89.214 37.208C89.1713 37.4 89.0647 37.5387 88.894 37.624L78.846 42.616C78.718 42.68 78.558 42.7653 78.366 42.872C78.1953 42.9573 78.0247 43 77.854 43H70.43ZM96.8275 43C96.2942 43 96.0275 42.7333 96.0275 42.2V1.144C96.0275 0.610664 96.2942 0.343998 96.8275 0.343998H114.172C114.684 0.343998 115.11 0.482665 115.452 0.759998L122.812 8.056C123.046 8.26933 123.185 8.45067 123.228 8.6C123.292 8.74933 123.324 8.99466 123.324 9.336V18.104C123.324 18.3813 123.217 18.6267 123.004 18.84L119.484 22.264L116.508 24.824L120.028 29.496L123.644 37.24C123.729 37.432 123.793 37.624 123.836 37.816C123.9 37.9867 123.932 38.2 123.932 38.456V42.2C123.932 42.7333 123.665 43 123.132 43H114.684C114.214 43 113.894 42.7867 113.724 42.36L108.572 27.384H106.172V42.2C106.172 42.7333 105.905 43 105.372 43H96.8275ZM109.692 19.544C111.462 19.544 112.668 19.1813 113.308 18.456C113.948 17.7093 114.268 16.3227 114.268 14.296C114.268 12.248 113.948 10.8613 113.308 10.136C112.668 9.38933 111.462 9.016 109.692 9.016C107.942 9.016 106.737 9.38933 106.076 10.136C105.414 10.8613 105.084 12.248 105.084 14.296C105.084 16.3227 105.414 17.7093 106.076 18.456C106.737 19.1813 107.942 19.544 109.692 19.544ZM129.828 43C129.294 43 129.028 42.7333 129.028 42.2V1.144C129.028 0.610664 129.294 0.343998 129.828 0.343998H138.884C139.417 0.343998 139.684 0.610664 139.684 1.144V42.2C139.684 42.7333 139.417 43 138.884 43H129.828ZM148.14 43C147.607 43 147.34 42.7333 147.34 42.2V1.144C147.34 0.610664 147.607 0.343998 148.14 0.343998H170.06C170.593 0.343998 170.86 0.610664 170.86 1.144V8.056C170.86 8.58933 170.593 8.856 170.06 8.856H157.996V19.544H168.46C168.993 19.544 169.26 19.8107 169.26 20.344V27.256C169.26 27.7893 168.993 28.056 168.46 28.056H157.996V42.2C157.996 42.7333 157.729 43 157.196 43H148.14ZM184.381 43C183.848 43 183.581 42.7333 183.581 42.2V29.72L175.005 21.176C174.856 21.0053 174.76 20.856 174.717 20.728C174.696 20.5787 174.685 20.408 174.685 20.216V1.144C174.685 0.610664 174.952 0.343998 175.485 0.343998H184.541C185.074 0.343998 185.341 0.610664 185.341 1.144V20.504H192.509V1.144C192.509 0.610664 192.776 0.343998 193.309 0.343998H202.365C202.898 0.343998 203.165 0.610664 203.165 1.144V20.216C203.165 20.408 203.154 20.5787 203.133 20.728C203.112 20.856 203.016 21.0053 202.845 21.176L194.301 29.72V42.2C194.301 42.7333 194.034 43 193.501 43H184.381Z" fill="#0B172A"/>
</svg>
